<?xml version="1.0" standalone="no"?><!DOCTYPE svg PUBLIC "-//W3C//DTD SVG 1.1//EN" "http://www.w3.org/Graphics/SVG/1.1/DTD/svg11.dtd"><svg t="1583742381239" class="icon" viewBox="0 0 1024 1024" version="1.1" xmlns="http://www.w3.org/2000/svg" p-id="2308" xmlns:xlink="http://www.w3.org/1999/xlink" width="200" height="200"><defs><style type="text/css"></style></defs><path d="M802.50255 527.860141c7.020108 45.604703 15.132233 94.433456 26.780413 145.29024 6.968107 28.496439 26.416407 48.828753 45.032695 68.641059l1.768027 2.028031c30.784475 32.552502 58.968909 63.908986 58.968909 123.241901a40.300622 40.300622 0 0 1-39.832614 40.092618h-252.567895a137.49012 137.49012 0 0 1-38.064587 78.781215 130.730016 130.730016 0 0 1-92.457426 38.064587 133.018051 133.018051 0 0 1-92.71743-38.064587 135.202085 135.202085 0 0 1-37.752582-78.781215H128.78016A39.936616 39.936616 0 0 1 88.947546 867.061372v-1.196019c0.572009-69.473071 34.580533-99.685537 70.357085-130.002005 19.760305-16.84826 40.404623-34.320529 46.800722-62.816968 12.532193-50.856784 19.760305-99.373533 27.352421-144.718232l2.028032-15.600241c4.368067-26.000401 8.112125-50.856784 12.792197-74.413147 17.732273-84.2933 49.400762-161.618492 125.529936-210.70725a287.92844 287.92844 0 0 1 59.592919-28.236435l-2.912045-2.860044a115.285778 115.285778 0 0 1-33.384515-81.69326 113.829755 113.829755 0 0 1 33.384515-81.121251A116.637799 116.637799 0 0 1 511.870068 0a115.38978 115.38978 0 0 1 81.06925 33.69652 114.401764 114.401764 0 0 1 34.008525 81.121251 115.597783 115.597783 0 0 1-34.008525 81.69326 262.812053 262.812053 0 0 1 68.589058 30.784474c106.133637 68.589058 123.553905 187.202887 140.974174 300.564636zM559.814807 68.017049a67.133035 67.133035 0 0 0-47.684735-19.760305 68.641059 68.641059 0 0 0-47.632735 19.760305 66.561026 66.561026 0 0 0-19.188295 46.800722 69.057065 69.057065 0 0 0 19.188295 47.684735 70.04508 70.04508 0 0 0 47.632735 19.760305 66.509026 66.509026 0 0 0 66.873031-67.601043 66.561026 66.561026 0 0 0-19.188296-46.800721z m163.958529 472.323284c-13.676211-87.777354-22.984354-192.402967-104.937618-245.339784a188.086901 188.086901 0 0 0-201.711111 0c-56.680874 36.920569-77.637197 96.513488-90.429395 159.018453-4.628071 22.67235-8.42413 46.228713-12.480192 70.617089l-2.340036 16.172249c-6.968107 46.800722-15.080233 97.345501-27.612426 150.802326-13.052201 54.340838-43.004663 79.925233-73.217129 105.509627a179.090762 179.090762 0 0 0-29.952462 29.692458h660.670189a219.80739 219.80739 0 0 0-24.128372-29.068448l-2.340037-1.716027c-25.584395-27.352422-52.884816-56.108865-64.22099-104.937618-11.908184-53.19682-19.760305-103.7416-27.300421-150.802326z m-162.190501 366.813657H463.35332a50.388777 50.388777 0 0 0 12.792197 22.100341 51.532795 51.532795 0 0 0 36.036556 14.820228 49.348761 49.348761 0 0 0 35.776552-14.820228 58.448901 58.448901 0 0 0 13.676211-22.100341z" p-id="2309"></path></svg>