{
  "accessors": [
    {
      "bufferView": 2,
      "componentType": 5126,
      "count": 6722,
      "max": [
        8.4579629898071289,
        16.953666687011719,
        2.0523669719696045
      ],
      "min": [
        -8.4410266876220703,
        -16.919143676757812,
        -0.52979999780654907
      ],
      "type": "VEC3"
    },
    {
      "bufferView": 2,
      "byteOffset": 80664,
      "componentType": 5126,
      "count": 6722,
      "max": [
        1,
        1,
        1
      ],
      "min": [
        -1,
        -1,
        -1
      ],
      "type": "VEC3"
    },
    {
      "bufferView": 3,
      "componentType": 5126,
      "count": 6722,
      "max": [
        1,
        1,
        1,
        1
      ],
      "min": [
        -1,
        -1,
        -1,
        -1
      ],
      "type": "VEC4"
    },
    {
      "bufferView": 1,
      "componentType": 5126,
      "count": 6722,
      "max": [
        0.875,
        1
      ],
      "min": [
        0.125,
        0
      ],
      "type": "VEC2"
    },
    {
      "bufferView": 0,
      "componentType": 5125,
      "count": 11364,
      "max": [
        6721
      ],
      "min": [
        0
      ],
      "type": "SCALAR"
    },
    {
      "bufferView": 2,
      "byteOffset": 161328,
      "componentType": 5126,
      "count": 208,
      "max": [
        0.37586900591850281,
        7.0159101486206055,
        2.5721590518951416
      ],
      "min": [
        -0.37586900591850281,
        -5.148190975189209,
        0.45067399740219116
      ],
      "type": "VEC3"
    },
    {
      "bufferView": 2,
      "byteOffset": 163824,
      "componentType": 5126,
      "count": 208,
      "max": [
        1,
        1,
        1
      ],
      "min": [
        -1,
        -1,
        -1
      ],
      "type": "VEC3"
    },
    {
      "bufferView": 3,
      "byteOffset": 107552,
      "componentType": 5126,
      "count": 208,
      "max": [
        1,
        1,
        0,
        1
      ],
      "min": [
        0,
        -1,
        0,
        1
      ],
      "type": "VEC4"
    },
    {
      "bufferView": 1,
      "byteOffset": 53776,
      "componentType": 5126,
      "count": 208,
      "max": [
        0.875,
        1
      ],
      "min": [
        0.125,
        0
      ],
      "type": "VEC2"
    },
    {
      "bufferView": 0,
      "byteOffset": 45456,
      "componentType": 5125,
      "count": 312,
      "max": [
        207
      ],
      "min": [
        0
      ],
      "type": "SCALAR"
    },
    {
      "bufferView": 2,
      "byteOffset": 166320,
      "componentType": 5126,
      "count": 4750,
      "max": [
        8.3523874282836914,
        15.305527687072754,
        4.3575549125671387
      ],
      "min": [
        -8.3354511260986328,
        -15.253827095031738,
        -1.7963000535964966
      ],
      "type": "VEC3"
    },
    {
      "bufferView": 2,
      "byteOffset": 223320,
      "componentType": 5126,
      "count": 4750,
      "max": [
        1,
        1,
        1
      ],
      "min": [
        -1,
        -1,
        -1
      ],
      "type": "VEC3"
    },
    {
      "bufferView": 3,
      "byteOffset": 110880,
      "componentType": 5126,
      "count": 4750,
      "max": [
        1,
        1,
        1,
        1
      ],
      "min": [
        -1,
        -1,
        -1,
        -1
      ],
      "type": "VEC4"
    },
    {
      "bufferView": 1,
      "byteOffset": 55440,
      "componentType": 5126,
      "count": 4750,
      "max": [
        1,
        1
      ],
      "min": [
        0,
        0
      ],
      "type": "VEC2"
    },
    {
      "bufferView": 0,
      "byteOffset": 46704,
      "componentType": 5125,
      "count": 11292,
      "max": [
        4749
      ],
      "min": [
        0
      ],
      "type": "SCALAR"
    },
    {
      "bufferView": 2,
      "byteOffset": 280320,
      "componentType": 5126,
      "count": 1152,
      "max": [
        8.4019050598144531,
        15.914772987365723,
        0.12667800486087799
      ],
      "min": [
        -8.3849697113037109,
        -15.673526763916016,
        -0.22010999917984009
      ],
      "type": "VEC3"
    },
    {
      "bufferView": 2,
      "byteOffset": 294144,
      "componentType": 5126,
      "count": 1152,
      "max": [
        1,
        1,
        1
      ],
      "min": [
        -1,
        -1,
        -1
      ],
      "type": "VEC3"
    },
    {
      "bufferView": 3,
      "byteOffset": 186880,
      "componentType": 5126,
      "count": 1152,
      "max": [
        1,
        1,
        0.6322517991065979,
        1
      ],
      "min": [
        -1,
        -1,
        -0.6322517991065979,
        -1
      ],
      "type": "VEC4"
    },
    {
      "bufferView": 1,
      "byteOffset": 93440,
      "componentType": 5126,
      "count": 1152,
      "max": [
        0.875,
        1
      ],
      "min": [
        0.125,
        0
      ],
      "type": "VEC2"
    },
    {
      "bufferView": 0,
      "byteOffset": 91872,
      "componentType": 5125,
      "count": 1728,
      "max": [
        1151
      ],
      "min": [
        0
      ],
      "type": "SCALAR"
    },
    {
      "bufferView": 2,
      "byteOffset": 307968,
      "componentType": 5126,
      "count": 1248,
      "max": [
        8.3821239471435547,
        16.898658752441406,
        3.4130969047546387
      ],
      "min": [
        -8.3651866912841797,
        -16.864137649536133,
        -1.5712209939956665
      ],
      "type": "VEC3"
    },
    {
      "bufferView": 2,
      "byteOffset": 322944,
      "componentType": 5126,
      "count": 1248,
      "max": [
        1,
        1,
        1
      ],
      "min": [
        -1,
        -1,
        -1
      ],
      "type": "VEC3"
    },
    {
      "bufferView": 3,
      "byteOffset": 205312,
      "componentType": 5126,
      "count": 1248,
      "max": [
        1,
        1,
        0.96592968702316284,
        1
      ],
      "min": [
        -1,
        -1,
        -0.96592968702316284,
        -1
      ],
      "type": "VEC4"
    },
    {
      "bufferView": 1,
      "byteOffset": 102656,
      "componentType": 5126,
      "count": 1248,
      "max": [
        1,
        1
      ],
      "min": [
        0,
        0
      ],
      "type": "VEC2"
    },
    {
      "bufferView": 0,
      "byteOffset": 98784,
      "componentType": 5125,
      "count": 1860,
      "max": [
        1247
      ],
      "min": [
        0
      ],
      "type": "SCALAR"
    },
    {
      "bufferView": 2,
      "byteOffset": 337920,
      "componentType": 5126,
      "count": 98,
      "max": [
        -5.7273950576782227,
        2.0620911121368408,
        3.1913590431213379
      ],
      "min": [
        -5.7883701324462891,
        -2.0620911121368408,
        3.1303839683532715
      ],
      "type": "VEC3"
    },
    {
      "bufferView": 2,
      "byteOffset": 339096,
      "componentType": 5126,
      "count": 98,
      "max": [
        1,
        1,
        1
      ],
      "min": [
        -1,
        -1,
        -1
      ],
      "type": "VEC3"
    },
    {
      "bufferView": 3,
      "byteOffset": 225280,
      "componentType": 5126,
      "count": 98,
      "max": [
        1,
        1.6048614659425198e-09,
        1,
        1
      ],
      "min": [
        -1,
        -1.4695632488681554e-09,
        -1,
        1
      ],
      "type": "VEC4"
    },
    {
      "bufferView": 1,
      "byteOffset": 112640,
      "componentType": 5126,
      "count": 98,
      "max": [
        0.65625,
        1
      ],
      "min": [
        0.34375,
        0
      ],
      "type": "VEC2"
    },
    {
      "bufferView": 0,
      "byteOffset": 106224,
      "componentType": 5125,
      "count": 276,
      "max": [
        97
      ],
      "min": [
        0
      ],
      "type": "SCALAR"
    },
    {
      "bufferView": 2,
      "byteOffset": 340272,
      "componentType": 5126,
      "count": 1536,
      "max": [
        0.4975610077381134,
        14.808155059814453,
        4.2741508483886719
      ],
      "min": [
        -0.48684999346733093,
        -14.808155059814453,
        -1.2238650321960449
      ],
      "type": "VEC3"
    },
    {
      "bufferView": 2,
      "byteOffset": 358704,
      "componentType": 5126,
      "count": 1536,
      "max": [
        1,
        1,
        1
      ],
      "min": [
        -1,
        -1,
        -1
      ],
      "type": "VEC3"
    },
    {
      "bufferView": 3,
      "byteOffset": 226848,
      "componentType": 5126,
      "count": 1536,
      "max": [
        1,
        1,
        1,
        1
      ],
      "min": [
        0,
        -1,
        0,
        -1
      ],
      "type": "VEC4"
    },
    {
      "bufferView": 1,
      "byteOffset": 113424,
      "componentType": 5126,
      "count": 1536,
      "max": [
        0.875,
        1
      ],
      "min": [
        0.125,
        0
      ],
      "type": "VEC2"
    },
    {
      "bufferView": 0,
      "byteOffset": 107328,
      "componentType": 5125,
      "count": 2304,
      "max": [
        1535
      ],
      "min": [
        0
      ],
      "type": "SCALAR"
    },
    {
      "bufferView": 2,
      "byteOffset": 377136,
      "componentType": 5126,
      "count": 1536,
      "max": [
        0.46150699257850647,
        15.076969146728516,
        1.9660990238189697
      ],
      "min": [
        -0.46150699257850647,
        -15.076969146728516,
        0.97865301370620728
      ],
      "type": "VEC3"
    },
    {
      "bufferView": 2,
      "byteOffset": 395568,
      "componentType": 5126,
      "count": 1536,
      "max": [
        1,
        1,
        1
      ],
      "min": [
        -1,
        -1,
        -1
      ],
      "type": "VEC3"
    },
    {
      "bufferView": 3,
      "byteOffset": 251424,
      "componentType": 5126,
      "count": 1536,
      "max": [
        1,
        1,
        0.70711058378219604,
        1
      ],
      "min": [
        0,
        -1,
        -0.70711058378219604,
        -1
      ],
      "type": "VEC4"
    },
    {
      "bufferView": 1,
      "byteOffset": 125712,
      "componentType": 5126,
      "count": 1536,
      "max": [
        0.86474597454071045,
        0.98974597454071045
      ],
      "min": [
        0.13525399565696716,
        0
      ],
      "type": "VEC2"
    },
    {
      "bufferView": 0,
      "byteOffset": 116544,
      "componentType": 5125,
      "count": 2112,
      "max": [
        1535
      ],
      "min": [
        0
      ],
      "type": "SCALAR"
    },
    {
      "bufferView": 2,
      "byteOffset": 414000,
      "componentType": 5126,
      "count": 514,
      "max": [
        6.0627169609069824,
        4.7408080101013184,
        1.4113839864730835
      ],
      "min": [
        -7.9019827842712402,
        -0.39748400449752808,
        -0.81808698177337646
      ],
      "type": "VEC3"
    },
    {
      "bufferView": 2,
      "byteOffset": 420168,
      "componentType": 5126,
      "count": 514,
      "max": [
        1,
        1,
        1
      ],
      "min": [
        -1,
        -1,
        -1
      ],
      "type": "VEC3"
    },
    {
      "bufferView": 3,
      "byteOffset": 276000,
      "componentType": 5126,
      "count": 514,
      "max": [
        0.011344261467456818,
        1,
        1,
        1
      ],
      "min": [
        -0.6087682843208313,
        -0.99701368808746338,
        -0.99931252002716064,
        1
      ],
      "type": "VEC4"
    },
    {
      "bufferView": 1,
      "byteOffset": 138000,
      "componentType": 5126,
      "count": 514,
      "max": [
        0.65625,
        1
      ],
      "min": [
        0.34375,
        0
      ],
      "type": "VEC2"
    },
    {
      "bufferView": 0,
      "byteOffset": 124992,
      "componentType": 5125,
      "count": 1362,
      "max": [
        513
      ],
      "min": [
        0
      ],
      "type": "SCALAR"
    },
    {
      "bufferView": 2,
      "byteOffset": 426336,
      "componentType": 5126,
      "count": 4272,
      "max": [
        6.2042131423950195,
        5.1227998733520508,
        3.3287639617919922
      ],
      "min": [
        -7.9019827842712402,
        -2.2767980098724365,
        -2.6505610942840576
      ],
      "type": "VEC3"
    },
    {
      "bufferView": 2,
      "byteOffset": 477600,
      "componentType": 5126,
      "count": 4272,
      "max": [
        1,
        1,
        1
      ],
      "min": [
        -1,
        -1,
        -1
      ],
      "type": "VEC3"
    },
    {
      "bufferView": 3,
      "byteOffset": 284224,
      "componentType": 5126,
      "count": 4272,
      "max": [
        1,
        1,
        1,
        1
      ],
      "min": [
        -1,
        -1,
        -1,
        -1
      ],
      "type": "VEC4"
    },
    {
      "bufferView": 1,
      "byteOffset": 142112,
      "componentType": 5126,
      "count": 4272,
      "max": [
        1,
        1
      ],
      "min": [
        0,
        0
      ],
      "type": "VEC2"
    },
    {
      "bufferView": 0,
      "byteOffset": 130440,
      "componentType": 5125,
      "count": 13434,
      "max": [
        4271
      ],
      "min": [
        0
      ],
      "type": "SCALAR"
    }
  ],
  "asset": {
    "extras": {
      "author": "pythagean (https://sketchfab.com/pythagean)",
      "license": "CC-BY-4.0 (http://creativecommons.org/licenses/by/4.0/)",
      "source": "https://sketchfab.com/3d-models/space-station-bf6d7287b84747f1b6c50986e62da4a6",
      "title": "Space Station"
    },
    "generator": "Sketchfab-6.30.0",
    "version": "2.0"
  },
  "bufferViews": [
    {
      "buffer": 0,
      "byteLength": 184176,
      "byteOffset": 0,
      "name": "floatBufferViews",
      "target": 34963
    },
    {
      "buffer": 0,
      "byteLength": 176288,
      "byteOffset": 184176,
      "byteStride": 8,
      "name": "floatBufferViews",
      "target": 34962
    },
    {
      "buffer": 0,
      "byteLength": 528864,
      "byteOffset": 360464,
      "byteStride": 12,
      "name": "floatBufferViews",
      "target": 34962
    },
    {
      "buffer": 0,
      "byteLength": 352576,
      "byteOffset": 889328,
      "byteStride": 16,
      "name": "floatBufferViews",
      "target": 34962
    }
  ],
  "buffers": [
    {
      "byteLength": 1241904,
      "uri": "scene.bin"
    }
  ],
  "materials": [
    {
      "doubleSided": true,
      "emissiveFactor": [
        0,
        0,
        0
      ],
      "name": "blinn1SG",
      "pbrMetallicRoughness": {
        "baseColorFactor": [
          0.77000000000000002,
          0.77000000000000002,
          0.77000000000000002,
          1
        ],
        "metallicFactor": 0,
        "roughnessFactor": 0.59999999999999998
      }
    },
    {
      "doubleSided": true,
      "emissiveFactor": [
        0,
        0,
        0
      ],
      "name": "blinn2SG",
      "pbrMetallicRoughness": {
        "baseColorFactor": [
          0.20000000000000001,
          0.20000000000000001,
          0.20000000000000001,
          1
        ],
        "metallicFactor": 0,
        "roughnessFactor": 0.59999999999999998
      }
    },
    {
      "doubleSided": true,
      "emissiveFactor": [
        0,
        0,
        0
      ],
      "name": "initialShadingGroup",
      "pbrMetallicRoughness": {
        "baseColorFactor": [
          0.5,
          0.5,
          0.5,
          1
        ],
        "metallicFactor": 0,
        "roughnessFactor": 0.59999999999999998
      }
    },
    {
      "doubleSided": true,
      "emissiveFactor": [
        0,
        0,
        0
      ],
      "name": "lambert2SG",
      "pbrMetallicRoughness": {
        "baseColorFactor": [
          0.20999999999999999,
          0.28999999999999998,
          0.5,
          1
        ],
        "metallicFactor": 0,
        "roughnessFactor": 0.59999999999999998
      }
    },
    {
      "doubleSided": true,
      "emissiveFactor": [
        0,
        0,
        0
      ],
      "name": "lambert3SG",
      "pbrMetallicRoughness": {
        "baseColorFactor": [
          0.58999999999999997,
          0.58999999999999997,
          0.58999999999999997,
          1
        ],
        "metallicFactor": 0,
        "roughnessFactor": 0.59999999999999998
      }
    },
    {
      "doubleSided": true,
      "emissiveFactor": [
        0,
        0,
        0
      ],
      "name": "lambert4SG",
      "pbrMetallicRoughness": {
        "baseColorFactor": [
          0.70999999999999996,
          0.70999999999999996,
          0.70999999999999996,
          1
        ],
        "metallicFactor": 0,
        "roughnessFactor": 0.59999999999999998
      }
    },
    {
      "doubleSided": true,
      "emissiveFactor": [
        0,
        0,
        0
      ],
      "name": "lambert5SG",
      "pbrMetallicRoughness": {
        "baseColorFactor": [
          0.64000000000000001,
          0.52000000000000002,
          0.37,
          1
        ],
        "metallicFactor": 0,
        "roughnessFactor": 0.59999999999999998
      }
    },
    {
      "doubleSided": true,
      "emissiveFactor": [
        0,
        0,
        0
      ],
      "name": "lambert6SG",
      "pbrMetallicRoughness": {
        "baseColorFactor": [
          0.89000000000000001,
          0.89000000000000001,
          0.89000000000000001,
          1
        ],
        "metallicFactor": 0,
        "roughnessFactor": 0.59999999999999998
      }
    }
  ],
  "meshes": [
    {
      "primitives": [
        {
          "attributes": {
            "NORMAL": 1,
            "POSITION": 0,
            "TANGENT": 2,
            "TEXCOORD_0": 3
          },
          "indices": 4,
          "material": 0,
          "mode": 4
        }
      ]
    },
    {
      "primitives": [
        {
          "attributes": {
            "NORMAL": 6,
            "POSITION": 5,
            "TANGENT": 7,
            "TEXCOORD_0": 8
          },
          "indices": 9,
          "material": 1,
          "mode": 4
        }
      ]
    },
    {
      "primitives": [
        {
          "attributes": {
            "NORMAL": 11,
            "POSITION": 10,
            "TANGENT": 12,
            "TEXCOORD_0": 13
          },
          "indices": 14,
          "material": 1,
          "mode": 4
        }
      ]
    },
    {
      "primitives": [
        {
          "attributes": {
            "NORMAL": 16,
            "POSITION": 15,
            "TANGENT": 17,
            "TEXCOORD_0": 18
          },
          "indices": 19,
          "material": 2,
          "mode": 4
        }
      ]
    },
    {
      "primitives": [
        {
          "attributes": {
            "NORMAL": 21,
            "POSITION": 20,
            "TANGENT": 22,
            "TEXCOORD_0": 23
          },
          "indices": 24,
          "material": 3,
          "mode": 4
        }
      ]
    },
    {
      "primitives": [
        {
          "attributes": {
            "NORMAL": 26,
            "POSITION": 25,
            "TANGENT": 27,
            "TEXCOORD_0": 28
          },
          "indices": 29,
          "material": 4,
          "mode": 4
        }
      ]
    },
    {
      "primitives": [
        {
          "attributes": {
            "NORMAL": 31,
            "POSITION": 30,
            "TANGENT": 32,
            "TEXCOORD_0": 33
          },
          "indices": 34,
          "material": 5,
          "mode": 4
        }
      ]
    },
    {
      "primitives": [
        {
          "attributes": {
            "NORMAL": 36,
            "POSITION": 35,
            "TANGENT": 37,
            "TEXCOORD_0": 38
          },
          "indices": 39,
          "material": 6,
          "mode": 4
        }
      ]
    },
    {
      "primitives": [
        {
          "attributes": {
            "NORMAL": 41,
            "POSITION": 40,
            "TANGENT": 42,
            "TEXCOORD_0": 43
          },
          "indices": 44,
          "material": 7,
          "mode": 4
        }
      ]
    },
    {
      "primitives": [
        {
          "attributes": {
            "NORMAL": 46,
            "POSITION": 45,
            "TANGENT": 47,
            "TEXCOORD_0": 48
          },
          "indices": 49,
          "material": 7,
          "mode": 4
        }
      ]
    }
  ],
  "nodes": [
    {
      "children": [
        1
      ],
      "name": "RootNode (gltf orientation matrix)",
      "rotation": [
        -0.70710678118654746,
        -0,
        -0,
        0.70710678118654757
      ]
    },
    {
      "children": [
        2
      ],
      "name": "RootNode (model correction matrix)"
    },
    {
      "children": [
        3,
        4,
        5,
        6,
        7,
        8,
        9,
        10,
        11,
        12
      ],
      "name": "Space Station.obj.cleaner.gles"
    },
    {
      "mesh": 0,
      "name": ""
    },
    {
      "mesh": 1,
      "name": ""
    },
    {
      "mesh": 2,
      "name": ""
    },
    {
      "mesh": 3,
      "name": ""
    },
    {
      "mesh": 4,
      "name": ""
    },
    {
      "mesh": 5,
      "name": ""
    },
    {
      "mesh": 6,
      "name": ""
    },
    {
      "mesh": 7,
      "name": ""
    },
    {
      "mesh": 8,
      "name": ""
    },
    {
      "mesh": 9,
      "name": ""
    }
  ],
  "scene": 0,
  "scenes": [
    {
      "name": "OSG_Scene",
      "nodes": [
        0
      ]
    }
  ]
}

